<mxfile host="app.diagrams.net" modified="2023-01-15T11:06:02.295Z" agent="5.0 (Windows NT 10.0; Win64; x64) AppleWebKit/537.36 (KHTML, like Gecko) Chrome/108.0.0.0 Safari/537.36" version="20.7.4" etag="dt6NuwZKXILKQhLgBlQ0" type="github">
  <diagram id="LyT8RAevVnDeSL9xan5m" name="Страница 1">
    <mxGraphModel dx="1707" dy="452" grid="1" gridSize="10" guides="1" tooltips="1" connect="1" arrows="1" fold="1" page="1" pageScale="1" pageWidth="827" pageHeight="1169" math="0" shadow="0">
      <root>
        <mxCell id="0" />
        <mxCell id="1" parent="0" />
        <mxCell id="bBKUnvCMG6SyRFwWWgur-5" style="edgeStyle=orthogonalEdgeStyle;rounded=0;orthogonalLoop=1;jettySize=auto;html=1;exitX=0.99;exitY=0.5;exitDx=0;exitDy=0;exitPerimeter=0;entryX=0;entryY=0.5;entryDx=0;entryDy=0;entryPerimeter=0;endArrow=none;endFill=0;" edge="1" parent="1" source="bBKUnvCMG6SyRFwWWgur-1" target="bBKUnvCMG6SyRFwWWgur-3">
          <mxGeometry relative="1" as="geometry" />
        </mxCell>
        <mxCell id="bBKUnvCMG6SyRFwWWgur-1" value="" style="shape=mxgraph.cisco.people.standing_woman;sketch=0;html=1;pointerEvents=1;dashed=0;fillColor=#036897;strokeColor=#ffffff;strokeWidth=2;verticalLabelPosition=bottom;verticalAlign=top;align=center;outlineConnect=0;" vertex="1" parent="1">
          <mxGeometry x="100" y="40" width="22" height="62" as="geometry" />
        </mxCell>
        <mxCell id="bBKUnvCMG6SyRFwWWgur-2" value="пользователь" style="text;html=1;align=center;verticalAlign=middle;resizable=0;points=[];autosize=1;strokeColor=none;fillColor=none;" vertex="1" parent="1">
          <mxGeometry x="61" y="102" width="100" height="30" as="geometry" />
        </mxCell>
        <mxCell id="bBKUnvCMG6SyRFwWWgur-8" style="edgeStyle=orthogonalEdgeStyle;rounded=0;orthogonalLoop=1;jettySize=auto;html=1;exitX=1;exitY=0.5;exitDx=0;exitDy=0;exitPerimeter=0;entryX=0;entryY=0.5;entryDx=0;entryDy=0;entryPerimeter=0;endArrow=none;endFill=0;" edge="1" parent="1" source="bBKUnvCMG6SyRFwWWgur-3" target="bBKUnvCMG6SyRFwWWgur-6">
          <mxGeometry relative="1" as="geometry" />
        </mxCell>
        <mxCell id="bBKUnvCMG6SyRFwWWgur-3" value="" style="sketch=0;aspect=fixed;pointerEvents=1;shadow=0;dashed=0;html=1;strokeColor=none;labelPosition=center;verticalLabelPosition=bottom;verticalAlign=top;align=center;fillColor=#2a70bb;shape=mxgraph.mscae.enterprise.android_phone" vertex="1" parent="1">
          <mxGeometry x="210" y="46" width="30" height="50" as="geometry" />
        </mxCell>
        <mxCell id="bBKUnvCMG6SyRFwWWgur-4" value="SmartHome.apk" style="text;html=1;align=center;verticalAlign=middle;resizable=0;points=[];autosize=1;strokeColor=none;fillColor=none;" vertex="1" parent="1">
          <mxGeometry x="170" y="16" width="110" height="30" as="geometry" />
        </mxCell>
        <mxCell id="bBKUnvCMG6SyRFwWWgur-11" style="edgeStyle=orthogonalEdgeStyle;rounded=0;orthogonalLoop=1;jettySize=auto;html=1;exitX=1;exitY=0.5;exitDx=0;exitDy=0;exitPerimeter=0;entryX=0;entryY=0.5;entryDx=0;entryDy=0;entryPerimeter=0;endArrow=none;endFill=0;" edge="1" parent="1" source="bBKUnvCMG6SyRFwWWgur-6" target="bBKUnvCMG6SyRFwWWgur-9">
          <mxGeometry relative="1" as="geometry" />
        </mxCell>
        <mxCell id="bBKUnvCMG6SyRFwWWgur-6" value="" style="shape=mxgraph.cisco.modems_and_phones.modem;sketch=0;html=1;pointerEvents=1;dashed=0;fillColor=#036897;strokeColor=#ffffff;strokeWidth=2;verticalLabelPosition=bottom;verticalAlign=top;align=center;outlineConnect=0;" vertex="1" parent="1">
          <mxGeometry x="320" y="57.5" width="77" height="27" as="geometry" />
        </mxCell>
        <mxCell id="bBKUnvCMG6SyRFwWWgur-7" value="Модем" style="text;html=1;align=center;verticalAlign=middle;resizable=0;points=[];autosize=1;strokeColor=none;fillColor=none;" vertex="1" parent="1">
          <mxGeometry x="328.5" y="27.5" width="60" height="30" as="geometry" />
        </mxCell>
        <mxCell id="bBKUnvCMG6SyRFwWWgur-15" style="edgeStyle=orthogonalEdgeStyle;rounded=0;orthogonalLoop=1;jettySize=auto;html=1;exitX=1;exitY=0.5;exitDx=0;exitDy=0;exitPerimeter=0;endArrow=none;endFill=0;" edge="1" parent="1" source="bBKUnvCMG6SyRFwWWgur-9" target="bBKUnvCMG6SyRFwWWgur-13">
          <mxGeometry relative="1" as="geometry" />
        </mxCell>
        <mxCell id="bBKUnvCMG6SyRFwWWgur-9" value="" style="shape=mxgraph.cisco.servers.fileserver;sketch=0;html=1;pointerEvents=1;dashed=0;fillColor=#036897;strokeColor=#ffffff;strokeWidth=2;verticalLabelPosition=bottom;verticalAlign=top;align=center;outlineConnect=0;" vertex="1" parent="1">
          <mxGeometry x="490" y="40" width="43" height="62" as="geometry" />
        </mxCell>
        <mxCell id="bBKUnvCMG6SyRFwWWgur-10" value="Server.exe" style="text;html=1;align=center;verticalAlign=middle;resizable=0;points=[];autosize=1;strokeColor=none;fillColor=none;" vertex="1" parent="1">
          <mxGeometry x="460" y="15" width="80" height="30" as="geometry" />
        </mxCell>
        <mxCell id="bBKUnvCMG6SyRFwWWgur-12" value="Сервер управления&lt;br&gt;&amp;nbsp;умным домом" style="text;html=1;align=center;verticalAlign=middle;resizable=0;points=[];autosize=1;strokeColor=none;fillColor=none;" vertex="1" parent="1">
          <mxGeometry x="446.5" y="96" width="130" height="40" as="geometry" />
        </mxCell>
        <mxCell id="bBKUnvCMG6SyRFwWWgur-17" style="edgeStyle=orthogonalEdgeStyle;rounded=0;orthogonalLoop=1;jettySize=auto;html=1;exitX=1;exitY=0.5;exitDx=0;exitDy=0;exitPerimeter=0;endArrow=none;endFill=0;entryX=0.84;entryY=0.5;entryDx=0;entryDy=0;entryPerimeter=0;" edge="1" parent="1" source="bBKUnvCMG6SyRFwWWgur-13" target="bBKUnvCMG6SyRFwWWgur-16">
          <mxGeometry relative="1" as="geometry">
            <Array as="points">
              <mxPoint x="810" y="71" />
              <mxPoint x="810" y="212" />
            </Array>
          </mxGeometry>
        </mxCell>
        <mxCell id="bBKUnvCMG6SyRFwWWgur-13" value="" style="shape=mxgraph.cisco.hubs_and_gateways.100baset_hub;sketch=0;html=1;pointerEvents=1;dashed=0;fillColor=#036897;strokeColor=#ffffff;strokeWidth=2;verticalLabelPosition=bottom;verticalAlign=top;align=center;outlineConnect=0;" vertex="1" parent="1">
          <mxGeometry x="630" y="48.5" width="90" height="45" as="geometry" />
        </mxCell>
        <mxCell id="bBKUnvCMG6SyRFwWWgur-14" value="Хаб для соединения&lt;br&gt;устройств с сервером&amp;nbsp;&lt;br&gt;умного дома" style="text;html=1;align=center;verticalAlign=middle;resizable=0;points=[];autosize=1;strokeColor=none;fillColor=none;" vertex="1" parent="1">
          <mxGeometry x="590" y="86" width="150" height="60" as="geometry" />
        </mxCell>
        <mxCell id="bBKUnvCMG6SyRFwWWgur-16" value="" style="shape=mxgraph.cisco.computers_and_peripherals.macintosh;sketch=0;html=1;pointerEvents=1;dashed=0;fillColor=#036897;strokeColor=#ffffff;strokeWidth=2;verticalLabelPosition=bottom;verticalAlign=top;align=center;outlineConnect=0;" vertex="1" parent="1">
          <mxGeometry x="740" y="220" width="99" height="64" as="geometry" />
        </mxCell>
        <mxCell id="bBKUnvCMG6SyRFwWWgur-18" value="сетевой&amp;nbsp;&lt;br&gt;кабель" style="text;html=1;align=center;verticalAlign=middle;resizable=0;points=[];autosize=1;strokeColor=none;fillColor=none;" vertex="1" parent="1">
          <mxGeometry x="750" y="111" width="70" height="40" as="geometry" />
        </mxCell>
        <mxCell id="bBKUnvCMG6SyRFwWWgur-19" value="домашний компьютер" style="text;html=1;align=center;verticalAlign=middle;resizable=0;points=[];autosize=1;strokeColor=none;fillColor=none;" vertex="1" parent="1">
          <mxGeometry x="720" y="284" width="150" height="30" as="geometry" />
        </mxCell>
        <mxCell id="bBKUnvCMG6SyRFwWWgur-28" style="edgeStyle=orthogonalEdgeStyle;rounded=0;orthogonalLoop=1;jettySize=auto;html=1;exitX=0.88;exitY=0.5;exitDx=0;exitDy=0;exitPerimeter=0;endArrow=none;endFill=0;" edge="1" parent="1" source="bBKUnvCMG6SyRFwWWgur-20" target="bBKUnvCMG6SyRFwWWgur-14">
          <mxGeometry relative="1" as="geometry" />
        </mxCell>
        <mxCell id="bBKUnvCMG6SyRFwWWgur-20" value="" style="fontColor=#0066CC;verticalAlign=top;verticalLabelPosition=bottom;labelPosition=center;align=center;html=1;outlineConnect=0;fillColor=#CCCCCC;strokeColor=#6881B3;gradientColor=none;gradientDirection=north;strokeWidth=2;shape=mxgraph.networks.security_camera;" vertex="1" parent="1">
          <mxGeometry x="10" y="174.5" width="70" height="55.5" as="geometry" />
        </mxCell>
        <mxCell id="bBKUnvCMG6SyRFwWWgur-21" value="камера в гостиной" style="text;html=1;align=center;verticalAlign=middle;resizable=0;points=[];autosize=1;strokeColor=none;fillColor=none;" vertex="1" parent="1">
          <mxGeometry x="-5" y="230" width="130" height="30" as="geometry" />
        </mxCell>
        <mxCell id="bBKUnvCMG6SyRFwWWgur-29" style="edgeStyle=orthogonalEdgeStyle;rounded=0;orthogonalLoop=1;jettySize=auto;html=1;exitX=0.88;exitY=0.5;exitDx=0;exitDy=0;exitPerimeter=0;endArrow=none;endFill=0;" edge="1" parent="1" source="bBKUnvCMG6SyRFwWWgur-22">
          <mxGeometry relative="1" as="geometry">
            <mxPoint x="240" y="200" as="targetPoint" />
          </mxGeometry>
        </mxCell>
        <mxCell id="bBKUnvCMG6SyRFwWWgur-22" value="" style="fontColor=#0066CC;verticalAlign=top;verticalLabelPosition=bottom;labelPosition=center;align=center;html=1;outlineConnect=0;fillColor=#CCCCCC;strokeColor=#6881B3;gradientColor=none;gradientDirection=north;strokeWidth=2;shape=mxgraph.networks.security_camera;" vertex="1" parent="1">
          <mxGeometry x="15" y="310" width="75" height="60" as="geometry" />
        </mxCell>
        <mxCell id="bBKUnvCMG6SyRFwWWgur-23" value="камера в спальне" style="text;html=1;align=center;verticalAlign=middle;resizable=0;points=[];autosize=1;strokeColor=none;fillColor=none;" vertex="1" parent="1">
          <mxGeometry x="-7.5" y="370" width="120" height="30" as="geometry" />
        </mxCell>
        <mxCell id="bBKUnvCMG6SyRFwWWgur-30" style="edgeStyle=orthogonalEdgeStyle;rounded=0;orthogonalLoop=1;jettySize=auto;html=1;exitX=0.88;exitY=0.5;exitDx=0;exitDy=0;exitPerimeter=0;endArrow=none;endFill=0;" edge="1" parent="1" source="bBKUnvCMG6SyRFwWWgur-24">
          <mxGeometry relative="1" as="geometry">
            <mxPoint x="240" y="340" as="targetPoint" />
          </mxGeometry>
        </mxCell>
        <mxCell id="bBKUnvCMG6SyRFwWWgur-24" value="" style="fontColor=#0066CC;verticalAlign=top;verticalLabelPosition=bottom;labelPosition=center;align=center;html=1;outlineConnect=0;fillColor=#CCCCCC;strokeColor=#6881B3;gradientColor=none;gradientDirection=north;strokeWidth=2;shape=mxgraph.networks.security_camera;" vertex="1" parent="1">
          <mxGeometry x="10" y="480" width="80" height="60" as="geometry" />
        </mxCell>
        <mxCell id="bBKUnvCMG6SyRFwWWgur-25" value="камера на кухне" style="text;html=1;align=center;verticalAlign=middle;resizable=0;points=[];autosize=1;strokeColor=none;fillColor=none;" vertex="1" parent="1">
          <mxGeometry x="-5" y="550" width="110" height="30" as="geometry" />
        </mxCell>
        <mxCell id="bBKUnvCMG6SyRFwWWgur-31" style="edgeStyle=orthogonalEdgeStyle;rounded=0;orthogonalLoop=1;jettySize=auto;html=1;exitX=0.88;exitY=0.5;exitDx=0;exitDy=0;exitPerimeter=0;endArrow=none;endFill=0;" edge="1" parent="1" source="bBKUnvCMG6SyRFwWWgur-26">
          <mxGeometry relative="1" as="geometry">
            <mxPoint x="240" y="510" as="targetPoint" />
          </mxGeometry>
        </mxCell>
        <mxCell id="bBKUnvCMG6SyRFwWWgur-26" value="" style="fontColor=#0066CC;verticalAlign=top;verticalLabelPosition=bottom;labelPosition=center;align=center;html=1;outlineConnect=0;fillColor=#CCCCCC;strokeColor=#6881B3;gradientColor=none;gradientDirection=north;strokeWidth=2;shape=mxgraph.networks.security_camera;" vertex="1" parent="1">
          <mxGeometry x="22" y="620" width="78" height="70" as="geometry" />
        </mxCell>
        <mxCell id="bBKUnvCMG6SyRFwWWgur-27" value="наружная камера" style="text;html=1;align=center;verticalAlign=middle;resizable=0;points=[];autosize=1;strokeColor=none;fillColor=none;" vertex="1" parent="1">
          <mxGeometry y="705" width="120" height="30" as="geometry" />
        </mxCell>
        <mxCell id="bBKUnvCMG6SyRFwWWgur-32" value="сетевой кабель" style="text;html=1;align=center;verticalAlign=middle;resizable=0;points=[];autosize=1;strokeColor=none;fillColor=none;" vertex="1" parent="1">
          <mxGeometry x="270" y="170" width="110" height="30" as="geometry" />
        </mxCell>
        <mxCell id="bBKUnvCMG6SyRFwWWgur-35" style="edgeStyle=orthogonalEdgeStyle;rounded=0;orthogonalLoop=1;jettySize=auto;html=1;exitX=1;exitY=0;exitDx=0;exitDy=0;exitPerimeter=0;entryX=0.867;entryY=0.9;entryDx=0;entryDy=0;entryPerimeter=0;endArrow=none;endFill=0;" edge="1" parent="1" source="bBKUnvCMG6SyRFwWWgur-34" target="bBKUnvCMG6SyRFwWWgur-14">
          <mxGeometry relative="1" as="geometry" />
        </mxCell>
        <mxCell id="bBKUnvCMG6SyRFwWWgur-40" style="edgeStyle=orthogonalEdgeStyle;rounded=0;orthogonalLoop=1;jettySize=auto;html=1;exitX=0;exitY=0.5;exitDx=0;exitDy=0;exitPerimeter=0;entryX=0.5;entryY=0;entryDx=0;entryDy=0;entryPerimeter=0;endArrow=none;endFill=0;" edge="1" parent="1" source="bBKUnvCMG6SyRFwWWgur-34" target="bBKUnvCMG6SyRFwWWgur-37">
          <mxGeometry relative="1" as="geometry" />
        </mxCell>
        <mxCell id="bBKUnvCMG6SyRFwWWgur-43" style="edgeStyle=orthogonalEdgeStyle;rounded=0;orthogonalLoop=1;jettySize=auto;html=1;exitX=0;exitY=1;exitDx=0;exitDy=0;exitPerimeter=0;entryX=0.5;entryY=0;entryDx=0;entryDy=0;entryPerimeter=0;endArrow=none;endFill=0;" edge="1" parent="1" source="bBKUnvCMG6SyRFwWWgur-34" target="bBKUnvCMG6SyRFwWWgur-39">
          <mxGeometry relative="1" as="geometry" />
        </mxCell>
        <mxCell id="bBKUnvCMG6SyRFwWWgur-50" style="edgeStyle=orthogonalEdgeStyle;rounded=0;orthogonalLoop=1;jettySize=auto;html=1;exitX=0.87;exitY=0.78;exitDx=0;exitDy=0;exitPerimeter=0;endArrow=none;endFill=0;entryX=0;entryY=0.571;entryDx=0;entryDy=0;entryPerimeter=0;" edge="1" parent="1" source="bBKUnvCMG6SyRFwWWgur-34" target="bBKUnvCMG6SyRFwWWgur-49">
          <mxGeometry x="-0.1181" y="-16" relative="1" as="geometry">
            <mxPoint x="730" y="420" as="targetPoint" />
            <Array as="points">
              <mxPoint x="678" y="290" />
              <mxPoint x="690" y="290" />
              <mxPoint x="690" y="414" />
            </Array>
            <mxPoint as="offset" />
          </mxGeometry>
        </mxCell>
        <mxCell id="bBKUnvCMG6SyRFwWWgur-55" style="edgeStyle=orthogonalEdgeStyle;rounded=0;orthogonalLoop=1;jettySize=auto;html=1;exitX=1;exitY=0.5;exitDx=0;exitDy=0;exitPerimeter=0;endArrow=none;endFill=0;" edge="1" parent="1" source="bBKUnvCMG6SyRFwWWgur-34" target="bBKUnvCMG6SyRFwWWgur-54">
          <mxGeometry relative="1" as="geometry">
            <Array as="points">
              <mxPoint x="710" y="267" />
              <mxPoint x="710" y="340" />
              <mxPoint x="771" y="340" />
              <mxPoint x="771" y="360" />
            </Array>
          </mxGeometry>
        </mxCell>
        <mxCell id="bBKUnvCMG6SyRFwWWgur-34" value="" style="shape=mxgraph.cisco.wireless.wlan_controller;sketch=0;html=1;pointerEvents=1;dashed=0;fillColor=#036897;strokeColor=#ffffff;strokeWidth=2;verticalLabelPosition=bottom;verticalAlign=top;align=center;outlineConnect=0;" vertex="1" parent="1">
          <mxGeometry x="590" y="239" width="101" height="56" as="geometry" />
        </mxCell>
        <mxCell id="bBKUnvCMG6SyRFwWWgur-36" value="wifi" style="text;html=1;align=center;verticalAlign=middle;resizable=0;points=[];autosize=1;strokeColor=none;fillColor=none;" vertex="1" parent="1">
          <mxGeometry x="610" y="295" width="40" height="30" as="geometry" />
        </mxCell>
        <mxCell id="bBKUnvCMG6SyRFwWWgur-37" value="" style="shape=mxgraph.cisco.misc.handheld;sketch=0;html=1;pointerEvents=1;dashed=0;fillColor=#036897;strokeColor=#ffffff;strokeWidth=2;verticalLabelPosition=bottom;verticalAlign=top;align=center;outlineConnect=0;" vertex="1" parent="1">
          <mxGeometry x="414" y="340" width="67" height="37" as="geometry" />
        </mxCell>
        <mxCell id="bBKUnvCMG6SyRFwWWgur-39" value="" style="verticalLabelPosition=bottom;html=1;verticalAlign=top;align=center;strokeColor=none;fillColor=#0086AB;shape=mxgraph.azure.computer;pointerEvents=1;" vertex="1" parent="1">
          <mxGeometry x="500" y="340" width="50" height="45" as="geometry" />
        </mxCell>
        <mxCell id="bBKUnvCMG6SyRFwWWgur-41" value="свч" style="text;html=1;align=center;verticalAlign=middle;resizable=0;points=[];autosize=1;strokeColor=none;fillColor=none;" vertex="1" parent="1">
          <mxGeometry x="420" y="365" width="40" height="30" as="geometry" />
        </mxCell>
        <mxCell id="bBKUnvCMG6SyRFwWWgur-42" value="экран управления&lt;br&gt;теплым полом" style="text;html=1;align=center;verticalAlign=middle;resizable=0;points=[];autosize=1;strokeColor=none;fillColor=none;" vertex="1" parent="1">
          <mxGeometry x="500" y="380" width="120" height="40" as="geometry" />
        </mxCell>
        <mxCell id="bBKUnvCMG6SyRFwWWgur-48" style="edgeStyle=orthogonalEdgeStyle;rounded=0;orthogonalLoop=1;jettySize=auto;html=1;exitX=0.5;exitY=0;exitDx=0;exitDy=0;exitPerimeter=0;entryX=0.5;entryY=1;entryDx=0;entryDy=0;entryPerimeter=0;endArrow=none;endFill=0;" edge="1" parent="1" source="bBKUnvCMG6SyRFwWWgur-44" target="bBKUnvCMG6SyRFwWWgur-34">
          <mxGeometry relative="1" as="geometry" />
        </mxCell>
        <mxCell id="bBKUnvCMG6SyRFwWWgur-44" value="" style="verticalLabelPosition=bottom;html=1;verticalAlign=top;align=center;strokeColor=#666d93;fillColor=#094491;shape=mxgraph.azure.computer;pointerEvents=1;fontColor=#ffffff;" vertex="1" parent="1">
          <mxGeometry x="615.5" y="410" width="50" height="45" as="geometry" />
        </mxCell>
        <mxCell id="bBKUnvCMG6SyRFwWWgur-47" value="экран управления&lt;br&gt;холодильником" style="text;html=1;align=center;verticalAlign=middle;resizable=0;points=[];autosize=1;strokeColor=none;fillColor=none;" vertex="1" parent="1">
          <mxGeometry x="590" y="450" width="120" height="40" as="geometry" />
        </mxCell>
        <mxCell id="bBKUnvCMG6SyRFwWWgur-49" value="" style="verticalLabelPosition=bottom;shadow=0;dashed=0;align=center;html=1;verticalAlign=top;shape=mxgraph.electrical.thermionic_devices.diode;fillColor=#2a70bb;" vertex="1" parent="1">
          <mxGeometry x="740" y="380" width="60" height="60" as="geometry" />
        </mxCell>
        <mxCell id="bBKUnvCMG6SyRFwWWgur-51" value="робот-пылесос" style="text;html=1;align=center;verticalAlign=middle;resizable=0;points=[];autosize=1;strokeColor=none;fillColor=none;" vertex="1" parent="1">
          <mxGeometry x="715" y="435" width="110" height="30" as="geometry" />
        </mxCell>
        <mxCell id="bBKUnvCMG6SyRFwWWgur-54" value="" style="shape=image;html=1;verticalAlign=top;verticalLabelPosition=bottom;labelBackgroundColor=#ffffff;imageAspect=0;aspect=fixed;image=https://cdn4.iconfinder.com/data/icons/food-and-equipment-outline/32/teapot-128.png;strokeColor=#666d93;fillColor=#094491;imageBorder=none;imageBackground=none;" vertex="1" parent="1">
          <mxGeometry x="850" y="351" width="99" height="99" as="geometry" />
        </mxCell>
      </root>
    </mxGraphModel>
  </diagram>
</mxfile>
